<svg xmlns="http://www.w3.org/2000/svg" viewBox="0 0 1280 260" role="img" aria-labelledby="title desc">
  <title id="title">Linkinfo.se logo</title>
  <desc id="desc">Stylized globe and magnifier icon with Linkinfo.se wordmark</desc>
  <defs>
    <linearGradient id="teal" x1="0" y1="0" x2="1" y2="1">
      <stop offset="0%" stop-color="#67d0d3"/>
      <stop offset="100%" stop-color="#0e5e8f"/>
    </linearGradient>
  </defs>

  <g transform="translate(30,20)">
    <circle cx="100" cy="100" r="90" fill="none" stroke="url(#teal)" stroke-width="10"/>
    <ellipse cx="100" cy="100" rx="60" ry="90" fill="none" stroke="#0e5e8f" stroke-width="8"/>
    <ellipse cx="100" cy="100" rx="90" ry="40" fill="none" stroke="#1f7ca6" stroke-width="8"/>
    <line x1="10" y1="100" x2="190" y2="100" stroke="#154f86" stroke-width="8"/>
    <line x1="100" y1="10" x2="100" y2="190" stroke="#154f86" stroke-width="8"/>

    <circle cx="70" cy="48" r="11" fill="#1a75a7"/>
    <circle cx="128" cy="42" r="11" fill="#4fc5ca"/>
    <circle cx="155" cy="88" r="11" fill="#52c7cb"/>
    <circle cx="142" cy="152" r="11" fill="#45bcc5"/>
    <circle cx="80" cy="164" r="11" fill="#2d93b4"/>
    <circle cx="40" cy="120" r="11" fill="#1f79a8"/>
    <circle cx="37" cy="72" r="11" fill="#2f9aba"/>

    <circle cx="95" cy="110" r="45" fill="white" stroke="#8ad9da" stroke-width="8"/>
    <path d="M70 116l18-18 18 9 18-20" fill="none" stroke="#38a8bd" stroke-width="8" stroke-linecap="round" stroke-linejoin="round"/>
    <path d="M122 87l3 20-20-3" fill="none" stroke="#38a8bd" stroke-width="6" stroke-linecap="round" stroke-linejoin="round"/>

    <circle cx="95" cy="110" r="52" fill="none" stroke="#0f5889" stroke-width="9"/>
    <line x1="130" y1="145" x2="170" y2="185" stroke="#0f5889" stroke-width="14" stroke-linecap="round"/>
  </g>

  <text x="275" y="150" font-family="Inter, Segoe UI, Arial, sans-serif" font-size="110" font-weight="500" fill="#0d485f" letter-spacing="1">Linkinfo.se</text>
</svg>
